# xmcd CD database file
#
# Track frame offsets:
#	150
#	25309
#	45502
#	68556
#	98726
#	113347
#	129672
#	145605
#	164947
#	183424
#
# Disc length: 2705 seconds
#
# Revision: 1
# Processed by: cddbd v1.5PL3 Copyright (c) Steve Scherf et al.
# Submitted via: CDex 1.51
#
DISCID=810a8f0a
DTITLE=Deckard - Dreams Of Dynamite And Divinity
DYEAR=2004
DGENRE=Blues
TTITLE0=To Your Soul
TTITLE1=We're Aching
TTITLE2=When Picking Fights
TTITLE3=Be Nobody Else
TTITLE4=Holy Rolling
TTITLE5=Say Something Stupid
TTITLE6=Fall Down At Their Feet
TTITLE7=Wired For This
TTITLE8=Grace's Estate
TTITLE9=I Dream Of Dynamite
EXTD=YEAR: 2004
EXTT0=
EXTT1=
EXTT2=
EXTT3=
EXTT4=
EXTT5=
EXTT6=
EXTT7=
EXTT8=
EXTT9=
PLAYORDER=
